# 3ds Max Wavefront OBJ Exporter v0.97b - (c)2007 guruware
# File Created: 26.11.2015 06:18:34

mtllib hedgehog.mtl

#
# object Box001
#

v  4.3642 28.0800 -4.8959
v  -4.1851 21.9407 -10.2666
v  -12.7657 27.9759 -3.5065
v  -4.2164 34.1152 1.8643
v  5.1379 19.2371 3.9807
v  -3.4428 25.2724 10.7408
v  -29.1848 43.3781 31.0212
v  -29.9584 52.2209 22.1446
v  -30.7473 50.8570 22.3609
v  -30.0393 42.7645 30.4844
v  -38.5078 46.0816 16.7739
v  -38.4422 45.3344 17.5242
v  21.5570 3.8350 -30.5470
v  30.1063 9.9743 -25.1762
v  29.3174 8.6104 -24.9600
v  21.6225 3.0878 -29.7967
v  30.8799 1.1315 -16.2997
v  30.0254 0.5178 -16.8365
v  -4.2973 24.6588 10.2040
v  4.2834 18.6235 3.4439
v  -4.1195 21.1935 -9.5163
v  -12.7002 27.2287 -2.7562
v  -5.0053 32.7514 2.0805
v  3.5754 26.7161 -4.6796
v  12.9763 9.8703 -23.7869
v  21.5256 16.0095 -18.4161
v  4.3956 15.9055 -17.0268
v  12.9449 22.0447 -11.6560
v  -21.3778 46.1857 15.3845
v  -29.9271 40.0464 10.0137
v  -12.7971 40.1504 8.6244
v  -21.3464 34.0112 3.2536
v  22.2992 7.1667 -9.5395
v  13.7186 13.2019 -2.7794
v  -20.6041 37.3428 24.2611
v  -12.0235 31.3076 17.5010
v  -21.4586 36.7292 23.7243
v  -12.8780 30.6940 16.9642
v  21.4447 6.5531 -10.0763
v  12.8641 12.5883 -3.3162
v  13.0419 9.1231 -23.0366
v  4.4612 15.1583 -16.2764
v  -29.8615 39.2992 10.7641
v  -21.2808 33.2640 4.0039
v  -22.1666 44.8218 15.6008
v  -13.5860 38.7866 8.8407
v  20.7367 14.6457 -18.1998
v  12.1561 20.6809 -11.4397
# 48 vertices

vn -0.0616 0.7044 -0.7071
vn 0.7235 0.5196 0.4545
vn -0.6876 0.4836 0.5417
vn 0.6876 -0.4836 -0.5417
vn 0.0616 -0.7044 0.7071
vn -0.7235 -0.5197 -0.4543
vn -0.7235 -0.5196 -0.4545
vn 0.0613 -0.7046 0.7069
# 8 vertex normals

vt 1.0000 0.5714 0.0000
vt 0.0000 0.5714 0.0000
vt 0.0000 0.4286 0.0000
vt 1.0000 0.4286 0.0000
vt 1.0000 0.0000 0.0000
vt 0.0000 0.0000 0.0000
vt 0.0000 1.0000 0.0000
vt 1.0000 1.0000 0.0000
vt 0.4286 0.5714 0.0000
vt 0.5714 0.5714 0.0000
vt 0.4286 0.4286 0.0000
vt 0.5714 0.4286 0.0000
vt 0.4286 0.0000 0.0000
vt 0.5714 0.0000 0.0000
vt 0.0000 0.8571 0.0000
vt 1.0000 0.8571 0.0000
vt 0.0000 0.7143 0.0000
vt 1.0000 0.7143 0.0000
vt 1.0000 0.1429 0.0000
vt 0.0000 0.1429 0.0000
vt 1.0000 0.2857 0.0000
vt 0.0000 0.2857 0.0000
vt 0.8571 0.8571 0.0000
vt 0.1429 0.8571 0.0000
vt 0.7143 0.7143 0.0000
vt 0.2857 0.7143 0.0000
vt 0.8571 0.1429 0.0000
vt 0.1429 0.1429 0.0000
vt 0.7143 0.2857 0.0000
vt 0.2857 0.2857 0.0000
vt 0.1429 0.0000 0.0000
vt 0.2857 0.0000 0.0000
vt 0.8571 0.0000 0.0000
vt 0.7143 0.0000 0.0000
# 34 texture coords

g Box001
usemtl wire_057008136
s 32
f 1/1/1 2/2/1 3/3/1 4/4/1 
s 64
f 5/1/2 1/2/2 4/3/2 6/4/2 
s off
f 7/5/3 8/6/3 9/6/3 10/5/3 
f 8/5/3 11/6/3 12/6/3 9/5/3 
f 13/7/4 14/8/4 15/8/4 16/7/4 
f 14/7/4 17/8/4 18/8/4 15/7/4 
f 6/4/5 19/4/5 20/1/5 5/1/5 
f 2/2/6 21/2/6 22/3/6 3/3/6 
s 1
f 19/9/7 23/10/7 24/11/7 20/12/7 
s 2
f 23/10/8 22/13/8 21/14/8 24/11/8 
s 32
f 14/8/1 13/7/1 25/15/1 26/16/1 
f 26/16/1 25/15/1 27/17/1 28/18/1 
f 28/18/1 27/17/1 2/2/1 1/1/1 
f 11/6/1 8/5/1 29/19/1 30/20/1 
f 30/20/1 29/19/1 31/21/1 32/22/1 
f 32/22/1 31/21/1 4/4/1 3/3/1 
s 64
f 17/8/2 14/7/2 26/15/2 33/16/2 
f 33/16/2 26/15/2 28/17/2 34/18/2 
f 34/18/2 28/17/2 1/2/2 5/1/2 
f 8/6/2 7/5/2 35/19/2 29/20/2 
f 29/20/2 35/19/2 36/21/2 31/22/2 
f 31/22/2 36/21/2 6/4/2 4/3/2 
s off
f 7/5/5 10/5/5 37/19/5 35/19/5 
f 35/19/5 37/19/5 38/21/5 36/21/5 
f 36/21/5 38/21/5 19/4/5 6/4/5 
f 18/8/5 17/8/5 33/16/5 39/16/5 
f 39/16/5 33/16/5 34/18/5 40/18/5 
f 40/18/5 34/18/5 5/1/5 20/1/5 
f 13/7/6 16/7/6 41/15/6 25/15/6 
f 25/15/6 41/15/6 42/17/6 27/17/6 
f 27/17/6 42/17/6 21/2/6 2/2/6 
f 12/6/6 11/6/6 30/20/6 43/20/6 
f 43/20/6 30/20/6 32/22/6 44/22/6 
f 44/22/6 32/22/6 3/3/6 22/3/6 
s 1
f 10/7/7 9/8/7 45/23/7 37/24/7 
f 37/24/7 45/23/7 46/25/7 38/26/7 
f 38/26/7 46/25/7 23/10/7 19/9/7 
f 15/6/7 18/5/7 39/27/7 47/28/7 
f 47/28/7 39/27/7 40/29/7 48/30/7 
f 48/30/7 40/29/7 20/12/7 24/11/7 
s 2
f 9/8/8 12/6/8 43/31/8 45/23/8 
f 45/23/8 43/31/8 44/32/8 46/25/8 
f 46/25/8 44/32/8 22/13/8 23/10/8 
f 16/5/8 15/6/8 47/28/8 41/33/8 
f 41/33/8 47/28/8 48/30/8 42/34/8 
f 42/34/8 48/30/8 24/11/8 21/14/8 
# 46 polygons

#
# object Box002
#

v  -0.3527 24.7933 5.8063
v  -8.4770 30.5076 12.2070
v  -9.2271 39.0811 3.6007
v  -1.1028 33.3668 -2.7999
v  8.7299 31.3155 11.5121
v  7.9798 39.8890 2.9058
v  5.7295 65.6095 -22.9129
v  -3.3530 59.0873 -28.6187
v  -3.3945 60.2118 -27.4949
v  4.9175 66.1807 -22.2732
v  -11.4774 64.8016 -22.2181
v  -10.7096 65.3527 -21.7360
v  -6.2267 4.7871 38.0257
v  1.8976 -0.9272 31.6251
v  1.8562 0.1973 32.7489
v  -5.4589 5.3381 38.5078
v  10.9802 5.5950 37.3308
v  10.1682 6.1661 37.9706
v  7.1678 40.4601 3.5456
v  7.9179 31.8866 12.1518
v  -7.7092 31.0587 12.6890
v  -8.4593 39.6322 4.0828
v  -1.1442 34.4913 -1.6761
v  -0.3941 25.9178 6.9301
v  -6.9768 13.3606 29.4195
v  1.1475 7.6463 23.0188
v  -7.7269 21.9341 20.8132
v  0.3974 16.2198 14.4126
v  -2.6030 50.5138 -20.0124
v  -10.7273 56.2281 -13.6118
v  -1.8529 41.9403 -11.4062
v  -9.9772 47.6546 -5.0056
v  10.2301 14.1685 28.7246
v  9.4800 22.7420 20.1183
v  6.4796 57.0360 -14.3067
v  7.2297 48.4625 -5.7004
v  5.6676 57.6071 -13.6669
v  6.4177 49.0336 -5.0607
v  9.4181 14.7396 29.3643
v  8.6680 23.3131 20.7581
v  -6.2090 13.9116 29.9015
v  -6.9591 22.4852 21.2953
v  -9.9595 56.7792 -13.1297
v  -9.2094 48.2057 -4.5235
v  -2.6444 51.6383 -18.8886
v  -1.8943 43.0648 -10.2824
v  1.1061 8.7708 24.1426
v  0.3560 17.3443 15.5364
# 48 vertices

vn -0.7235 -0.5196 -0.4545
vn 0.6876 -0.4836 -0.5417
vn -0.0616 0.7044 -0.7071
vn 0.0616 -0.7044 0.7071
vn 0.7235 0.5196 0.4545
vn -0.6874 0.4837 0.5418
vn -0.6876 0.4836 0.5417
vn 0.7233 0.5197 0.4547
# 8 vertex normals

vt 1.0000 0.5714 0.0000
vt 0.0000 0.5714 0.0000
vt 0.0000 0.4286 0.0000
vt 1.0000 0.4286 0.0000
vt 1.0000 0.0000 0.0000
vt 0.0000 0.0000 0.0000
vt 0.0000 1.0000 0.0000
vt 1.0000 1.0000 0.0000
vt 0.4286 0.5714 0.0000
vt 0.5714 0.5714 0.0000
vt 0.4286 0.4286 0.0000
vt 0.5714 0.4286 0.0000
vt 0.4286 0.0000 0.0000
vt 0.5714 0.0000 0.0000
vt 0.0000 0.8571 0.0000
vt 1.0000 0.8571 0.0000
vt 0.0000 0.7143 0.0000
vt 1.0000 0.7143 0.0000
vt 1.0000 0.1429 0.0000
vt 0.0000 0.1429 0.0000
vt 1.0000 0.2857 0.0000
vt 0.0000 0.2857 0.0000
vt 0.8571 0.8571 0.0000
vt 0.1429 0.8571 0.0000
vt 0.7143 0.7143 0.0000
vt 0.2857 0.7143 0.0000
vt 0.8571 0.1429 0.0000
vt 0.1429 0.1429 0.0000
vt 0.7143 0.2857 0.0000
vt 0.2857 0.2857 0.0000
vt 0.1429 0.0000 0.0000
vt 0.2857 0.0000 0.0000
vt 0.8571 0.0000 0.0000
vt 0.7143 0.0000 0.0000
# 34 texture coords

g Box002
usemtl wire_057008136
s 32
f 49/35/9 50/36/9 51/37/9 52/38/9 
s 64
f 53/35/10 49/36/10 52/37/10 54/38/10 
s off
f 55/39/11 56/40/11 57/40/11 58/39/11 
f 56/39/11 59/40/11 60/40/11 57/39/11 
f 61/41/12 62/42/12 63/42/12 64/41/12 
f 62/41/12 65/42/12 66/42/12 63/41/12 
f 54/38/13 67/38/13 68/35/13 53/35/13 
f 50/36/14 69/36/14 70/37/14 51/37/14 
s 1
f 67/43/15 71/44/15 72/45/15 68/46/15 
s 2
f 71/44/16 70/47/16 69/48/16 72/45/16 
s 32
f 62/42/9 61/41/9 73/49/9 74/50/9 
f 74/50/9 73/49/9 75/51/9 76/52/9 
f 76/52/9 75/51/9 50/36/9 49/35/9 
f 59/40/9 56/39/9 77/53/9 78/54/9 
f 78/54/9 77/53/9 79/55/9 80/56/9 
f 80/56/9 79/55/9 52/38/9 51/37/9 
s 64
f 65/42/10 62/41/10 74/49/10 81/50/10 
f 81/50/10 74/49/10 76/51/10 82/52/10 
f 82/52/10 76/51/10 49/36/10 53/35/10 
f 56/40/10 55/39/10 83/53/10 77/54/10 
f 77/54/10 83/53/10 84/55/10 79/56/10 
f 79/56/10 84/55/10 54/38/10 52/37/10 
s off
f 55/39/13 58/39/13 85/53/13 83/53/13 
f 83/53/13 85/53/13 86/55/13 84/55/13 
f 84/55/13 86/55/13 67/38/13 54/38/13 
f 66/42/13 65/42/13 81/50/13 87/50/13 
f 87/50/13 81/50/13 82/52/13 88/52/13 
f 88/52/13 82/52/13 53/35/13 68/35/13 
f 61/41/14 64/41/14 89/49/14 73/49/14 
f 73/49/14 89/49/14 90/51/14 75/51/14 
f 75/51/14 90/51/14 69/36/14 50/36/14 
f 60/40/14 59/40/14 78/54/14 91/54/14 
f 91/54/14 78/54/14 80/56/14 92/56/14 
f 92/56/14 80/56/14 51/37/14 70/37/14 
s 1
f 58/41/15 57/42/15 93/57/15 85/58/15 
f 85/58/15 93/57/15 94/59/15 86/60/15 
f 86/60/15 94/59/15 71/44/15 67/43/15 
f 63/40/15 66/39/15 87/61/15 95/62/15 
f 95/62/15 87/61/15 88/63/15 96/64/15 
f 96/64/15 88/63/15 68/46/15 72/45/15 
s 2
f 57/42/16 60/40/16 91/65/16 93/57/16 
f 93/57/16 91/65/16 92/66/16 94/59/16 
f 94/59/16 92/66/16 70/47/16 71/44/16 
f 64/39/16 63/40/16 95/62/16 89/67/16 
f 89/67/16 95/62/16 96/64/16 90/68/16 
f 90/68/16 96/64/16 72/45/16 69/48/16 
# 46 polygons

#
# object Box003
#

v  0.3977 32.3776 -0.3591
v  -0.3305 40.7012 -8.7146
v  -9.8519 33.8640 -14.6960
v  -9.1236 25.5404 -6.3405
v  9.0288 26.3069 -7.1590
v  -0.4925 19.4696 -13.1404
v  -29.0565 -1.0421 -31.0846
v  -37.6876 5.0286 -24.2847
v  -37.0282 5.3455 -25.6968
v  -29.1293 -0.2102 -31.9197
v  -38.4159 13.3522 -32.6402
v  -37.6864 12.8390 -33.2147
v  28.2335 61.2130 9.2296
v  28.9617 52.8894 17.5850
v  29.6212 53.2063 16.1730
v  28.9629 60.6998 8.6551
v  37.5928 46.8187 10.7852
v  37.5200 47.6506 9.9501
v  -0.5653 20.3016 -13.9755
v  8.9560 27.1388 -7.9941
v  0.3989 40.1880 -9.2891
v  -9.1224 33.3507 -15.2705
v  -8.4642 25.8573 -7.7526
v  1.0572 32.6945 -1.7712
v  18.7121 54.3757 3.2482
v  19.4404 46.0521 11.6036
v  9.1908 47.5385 -2.7332
v  9.9190 39.2149 5.6222
v  -28.1663 11.8658 -18.3033
v  -28.8945 20.1895 -26.6588
v  -18.6450 18.7031 -12.3219
v  -19.3732 27.0267 -20.6774
v  28.0715 39.9814 4.8038
v  18.5501 33.1442 -1.1776
v  -19.5352 5.7951 -25.1032
v  -10.0139 12.6324 -19.1218
v  -19.6080 6.6271 -25.9383
v  -10.0866 13.4643 -19.9569
v  27.9987 40.8134 3.9687
v  18.4774 33.9761 -2.0127
v  19.4416 53.8625 2.6737
v  9.9203 47.0252 -3.3077
v  -28.1651 19.6762 -27.2333
v  -18.6437 26.5135 -21.2519
v  -27.5068 12.1827 -19.7154
v  -17.9855 19.0200 -13.7340
v  20.0998 46.3690 10.1916
v  10.5785 39.5318 4.2102
# 48 vertices

vn -0.6876 0.4836 0.5417
vn 0.0616 -0.7044 0.7071
vn -0.7235 -0.5196 -0.4545
vn 0.7235 0.5196 0.4545
vn 0.6876 -0.4836 -0.5417
vn -0.0615 0.7043 -0.7072
vn -0.0616 0.7044 -0.7071
vn 0.6875 -0.4833 -0.5419
# 8 vertex normals

vt 1.0000 0.5714 0.0000
vt 0.0000 0.5714 0.0000
vt 0.0000 0.4286 0.0000
vt 1.0000 0.4286 0.0000
vt 1.0000 0.0000 0.0000
vt 0.0000 0.0000 0.0000
vt 0.0000 1.0000 0.0000
vt 1.0000 1.0000 0.0000
vt 0.4286 0.5714 0.0000
vt 0.5714 0.5714 0.0000
vt 0.4286 0.4286 0.0000
vt 0.5714 0.4286 0.0000
vt 0.4286 0.0000 0.0000
vt 0.5714 0.0000 0.0000
vt 0.0000 0.8571 0.0000
vt 1.0000 0.8571 0.0000
vt 0.0000 0.7143 0.0000
vt 1.0000 0.7143 0.0000
vt 1.0000 0.1429 0.0000
vt 0.0000 0.1429 0.0000
vt 1.0000 0.2857 0.0000
vt 0.0000 0.2857 0.0000
vt 0.8571 0.8571 0.0000
vt 0.1429 0.8571 0.0000
vt 0.7143 0.7143 0.0000
vt 0.2857 0.7143 0.0000
vt 0.8571 0.1429 0.0000
vt 0.1429 0.1429 0.0000
vt 0.7143 0.2857 0.0000
vt 0.2857 0.2857 0.0000
vt 0.1429 0.0000 0.0000
vt 0.2857 0.0000 0.0000
vt 0.8571 0.0000 0.0000
vt 0.7143 0.0000 0.0000
# 34 texture coords

g Box003
usemtl wire_057008136
s 32
f 97/69/17 98/70/17 99/71/17 100/72/17 
s 64
f 101/69/18 97/70/18 100/71/18 102/72/18 
s off
f 103/73/19 104/74/19 105/74/19 106/73/19 
f 104/73/19 107/74/19 108/74/19 105/73/19 
f 109/75/20 110/76/20 111/76/20 112/75/20 
f 110/75/20 113/76/20 114/76/20 111/75/20 
f 102/72/21 115/72/21 116/69/21 101/69/21 
f 98/70/22 117/70/22 118/71/22 99/71/22 
s 1
f 115/77/23 119/78/23 120/79/23 116/80/23 
s 2
f 119/78/24 118/81/24 117/82/24 120/79/24 
s 32
f 110/76/17 109/75/17 121/83/17 122/84/17 
f 122/84/17 121/83/17 123/85/17 124/86/17 
f 124/86/17 123/85/17 98/70/17 97/69/17 
f 107/74/17 104/73/17 125/87/17 126/88/17 
f 126/88/17 125/87/17 127/89/17 128/90/17 
f 128/90/17 127/89/17 100/72/17 99/71/17 
s 64
f 113/76/18 110/75/18 122/83/18 129/84/18 
f 129/84/18 122/83/18 124/85/18 130/86/18 
f 130/86/18 124/85/18 97/70/18 101/69/18 
f 104/74/18 103/73/18 131/87/18 125/88/18 
f 125/88/18 131/87/18 132/89/18 127/90/18 
f 127/90/18 132/89/18 102/72/18 100/71/18 
s off
f 103/73/21 106/73/21 133/87/21 131/87/21 
f 131/87/21 133/87/21 134/89/21 132/89/21 
f 132/89/21 134/89/21 115/72/21 102/72/21 
f 114/76/21 113/76/21 129/84/21 135/84/21 
f 135/84/21 129/84/21 130/86/21 136/86/21 
f 136/86/21 130/86/21 101/69/21 116/69/21 
f 109/75/22 112/75/22 137/83/22 121/83/22 
f 121/83/22 137/83/22 138/85/22 123/85/22 
f 123/85/22 138/85/22 117/70/22 98/70/22 
f 108/74/22 107/74/22 126/88/22 139/88/22 
f 139/88/22 126/88/22 128/90/22 140/90/22 
f 140/90/22 128/90/22 99/71/22 118/71/22 
s 1
f 106/75/23 105/76/23 141/91/23 133/92/23 
f 133/92/23 141/91/23 142/93/23 134/94/23 
f 134/94/23 142/93/23 119/78/23 115/77/23 
f 111/74/23 114/73/23 135/95/23 143/96/23 
f 143/96/23 135/95/23 136/97/23 144/98/23 
f 144/98/23 136/97/23 116/80/23 120/79/23 
s 2
f 105/76/24 108/74/24 139/99/24 141/91/24 
f 141/91/24 139/99/24 140/100/24 142/93/24 
f 142/93/24 140/100/24 118/81/24 119/78/24 
f 112/73/24 111/74/24 143/96/24 137/101/24 
f 137/101/24 143/96/24 144/98/24 138/102/24 
f 138/102/24 144/98/24 120/79/24 117/82/24 
# 46 polygons

